<?xml version="1.0" standalone="no"?><!DOCTYPE svg PUBLIC "-//W3C//DTD SVG 1.1//EN" "http://www.w3.org/Graphics/SVG/1.1/DTD/svg11.dtd"><svg t="1641869884653" class="icon" viewBox="0 0 1028 1024" version="1.1" xmlns="http://www.w3.org/2000/svg" p-id="1644" xmlns:xlink="http://www.w3.org/1999/xlink" width="200.78125" height="200"><defs><style type="text/css"></style></defs><path d="M908.8 584.533333l-243.2 243.2c-8.533333 8.533333-12.8 21.333333-12.8 29.866667-25.6-34.133333-42.666667-76.8-42.666667-119.466667 0-110.933333 89.6-204.8 204.8-204.8 46.933333 0 89.6 17.066667 119.466667 42.666667-4.266667-4.266667-17.066667 0-25.6 8.533333z m-456.533333-132.266666c-110.933333 0-204.8-89.6-204.8-204.8S337.066667 42.666667 452.266667 42.666667c110.933333 0 204.8 89.6 204.8 204.8s-93.866667 204.8-204.8 204.8z m183.466666 64c-64 51.2-102.4 132.266667-102.4 217.6 0 98.133333 46.933333 179.2 119.466667 230.4-59.733333-12.8-128-29.866667-200.533333-29.866667C200.533333 942.933333 0 1109.333333 0 857.6s200.533333-366.933333 448-366.933333c68.266667 0 132.266667 8.533333 187.733333 25.6z m93.866667 371.2l243.2-243.2c8.533333-8.533333 12.8-21.333333 12.8-29.866667 25.6 34.133333 42.666667 76.8 42.666667 123.733333 0 110.933333-89.6 204.8-204.8 204.8-46.933333 0-89.6-17.066667-119.466667-42.666666 4.266667 0 17.066667-4.266667 25.6-12.8z" p-id="1645"></path></svg>