<?xml version="1.0" standalone="no"?><!DOCTYPE svg PUBLIC "-//W3C//DTD SVG 1.1//EN"
  "http://www.w3.org/Graphics/SVG/1.1/DTD/svg11.dtd">
<svg t="1641887577699" class="icon" viewBox="0 0 1024 1024" version="1.1"
     xmlns="http://www.w3.org/2000/svg" p-id="3706"
     width="200" height="200">
  <defs>
    <style type="text/css"></style>
  </defs>
  <path
    d="M789.333333 938.666667H234.666667c-36.266667 0-64-27.733333-64-64V405.333333c0-36.266667 27.733333-64 64-64h554.666666c36.266667 0 64 27.733333 64 64v469.333334c0 36.266667-27.733333 64-64 64zM234.666667 384c-12.8 0-21.333333 8.533333-21.333334 21.333333v469.333334c0 12.8 8.533333 21.333333 21.333334 21.333333h554.666666c12.8 0 21.333333-8.533333 21.333334-21.333333V405.333333c0-12.8-8.533333-21.333333-21.333334-21.333333H234.666667z"
    p-id="3707"></path>
  <path
    d="M597.333333 384c-4.266667 0-8.533333 0-10.666666-4.266667-10.666667-6.4-12.8-19.2-6.4-29.866666l106.666666-170.666667c6.4-10.666667 19.2-12.8 29.866667-6.4 10.666667 6.4 12.8 19.2 6.4 29.866667l-106.666667 170.666666c-4.266667 6.4-12.8 10.666667-19.2 10.666667zM426.666667 384c-6.4 0-14.933333-4.266667-17.066667-10.666667l-106.666667-170.666666c-6.4-10.666667-4.266667-23.466667 6.4-29.866667 10.666667-6.4 23.466667-4.266667 29.866667 6.4l106.666667 170.666667c6.4 10.666667 4.266667 23.466667-6.4 29.866666-4.266667 4.266667-8.533333 4.266667-12.8 4.266667z"
    p-id="3708"></path>
  <path
    d="M725.333333 213.333333c-36.266667 0-64-27.733333-64-64s27.733333-64 64-64 64 27.733333 64 64-27.733333 64-64 64z m0-85.333333c-12.8 0-21.333333 8.533333-21.333333 21.333333s8.533333 21.333333 21.333333 21.333334 21.333333-8.533333 21.333334-21.333334-8.533333-21.333333-21.333334-21.333333zM298.666667 213.333333c-36.266667 0-64-27.733333-64-64s27.733333-64 64-64 64 27.733333 64 64-27.733333 64-64 64z m0-85.333333c-12.8 0-21.333333 8.533333-21.333334 21.333333s8.533333 21.333333 21.333334 21.333334 21.333333-8.533333 21.333333-21.333334-8.533333-21.333333-21.333333-21.333333zM597.333333 704h-170.666666c-59.733333 0-106.666667-46.933333-106.666667-106.666667s46.933333-106.666667 106.666667-106.666666h170.666666c59.733333 0 106.666667 46.933333 106.666667 106.666666s-46.933333 106.666667-106.666667 106.666667z m-170.666666-170.666667c-36.266667 0-64 27.733333-64 64s27.733333 64 64 64h170.666666c36.266667 0 64-27.733333 64-64s-27.733333-64-64-64h-170.666666zM192 746.666667H85.333333c-12.8 0-21.333333-8.533333-21.333333-21.333334V512c0-12.8 8.533333-21.333333 21.333333-21.333333h106.666667c12.8 0 21.333333 8.533333 21.333333 21.333333s-8.533333 21.333333-21.333333 21.333333H106.666667v170.666667h85.333333c12.8 0 21.333333 8.533333 21.333333 21.333333s-8.533333 21.333333-21.333333 21.333334zM938.666667 746.666667h-106.666667c-12.8 0-21.333333-8.533333-21.333333-21.333334s8.533333-21.333333 21.333333-21.333333h85.333333v-170.666667h-85.333333c-12.8 0-21.333333-8.533333-21.333333-21.333333s8.533333-21.333333 21.333333-21.333333h106.666667c12.8 0 21.333333 8.533333 21.333333 21.333333v213.333333c0 12.8-8.533333 21.333333-21.333333 21.333334z"
    p-id="3709"></path>
</svg>
