<?xml version="1.0" standalone="no"?><!DOCTYPE svg PUBLIC "-//W3C//DTD SVG 1.1//EN" "http://www.w3.org/Graphics/SVG/1.1/DTD/svg11.dtd"><svg t="1638408253303" class="icon" viewBox="0 0 1024 1024" version="1.1" xmlns="http://www.w3.org/2000/svg" p-id="1693" xmlns:xlink="http://www.w3.org/1999/xlink" width="200" height="200"><defs><style type="text/css"></style></defs><path d="M329.285 317.714l-8.423 4.429c-8.78 4.584-13.528 14.847-11.923 24.415a240.738 240.738 0 0 0 5.492 14.748c2.03 4.854 4.23 9.653 6.537 14.293 5.62 7.892 16.246 11.825 25.699 8.86l9.042-2.87c14.742-3.86 31.116-0.055 42.626 11.513 11.549 11.527 15.374 27.864 11.549 42.57L407 444.8c-2.958 9.44 0.938 20.043 8.83 25.707 4.635 2.328 9.403 4.528 14.323 6.53 4.876 2.043 9.809 3.846 14.74 5.478 9.538 1.604 19.874-3.123 24.414-11.91l4.402-8.388c7.68-13.144 21.916-22.002 38.268-22.002 16.338 0 30.548 8.83 38.255 21.932l4.414 8.46c4.584 8.786 14.847 13.513 24.414 11.91a222.9 222.9 0 0 0 14.734-5.48 226.477 226.477 0 0 0 14.323-6.529c7.891-5.622 11.81-16.253 8.843-25.706l-2.853-9.042c-3.86-14.734-0.07-31.086 11.485-42.656 11.554-11.525 27.879-15.372 42.599-11.512l9.097 2.882c9.427 2.952 20.045-0.938 25.693-8.83 2.314-4.656 4.527-9.41 6.543-14.322a218.706 218.706 0 0 0 5.495-14.749c1.617-9.58-3.108-19.844-11.91-24.43l-8.403-4.4c-13.132-7.665-21.988-21.901-21.988-38.255 0-16.323 8.83-30.59 21.974-38.268l8.417-4.443c8.803-4.571 13.528-14.833 11.925-24.401-1.647-4.91-3.48-9.85-5.493-14.734-2.032-4.869-4.203-9.68-6.53-14.309-5.622-7.89-16.253-11.823-25.709-8.842l-9.056 2.853c-14.748 3.862-31.072 0.057-42.654-11.512-11.555-11.554-15.345-27.878-11.485-42.613l2.853-9.056c2.967-9.44-0.952-20.043-8.857-25.692-4.641-2.328-9.397-4.543-14.308-6.544a208.838 208.838 0 0 0-14.734-5.466c-9.568-1.632-19.873 3.124-24.414 11.896l-4.4 8.39c-7.68 13.173-21.932 22.002-38.269 22.002-16.31 0-30.576-8.829-38.268-22.003l-4.387-8.389c-4.555-8.771-14.832-13.528-24.406-11.896-4.955 1.605-9.874 3.436-14.764 5.423-4.883 2.044-9.688 4.217-14.323 6.545-7.892 5.65-11.809 16.266-8.83 25.735l2.826 9.056c3.883 14.763 0.058 31.086-11.491 42.613-11.51 11.57-27.85 15.373-42.612 11.526l-9.07-2.867c-9.44-2.98-20.064 0.952-25.686 8.842a204.584 204.584 0 0 0-6.537 14.31c-2.037 4.882-3.848 9.822-5.492 14.733-1.604 9.581 3.142 19.858 11.923 24.444l8.403 4.4c13.156 7.679 21.986 21.945 21.986 38.268 0 16.309-8.83 30.532-21.966 38.226z m182.693-146.007c59.533 0 107.795 48.275 107.795 107.78 0 59.49-48.262 107.752-107.795 107.752-59.534 0-107.752-48.263-107.752-107.753 0-59.504 48.22-107.78 107.752-107.78z m412.67 517.467H798.57V581.65c0-26.388-21.476-47.85-47.864-47.85H276.254c-26.387 0-47.852 21.462-47.852 47.85v107.524H99.345c-20.419 0-36.956 16.551-36.956 36.949v184.771c0 20.4 16.537 36.963 36.956 36.963h273.966c20.397 0 36.947-16.564 36.947-36.963V726.123c0-20.399-16.55-36.949-36.947-36.949H250.207V581.65c0-14.366 11.681-26.047 26.047-26.047h474.452c14.364 0 26.063 11.681 26.063 26.047v107.524h-126.08c-20.413 0-36.963 16.551-36.963 36.949v184.771c0 20.4 16.55 36.963 36.963 36.963h273.959c20.397 0 36.962-16.564 36.962-36.963V726.123c0-20.398-16.566-36.949-36.962-36.949z" p-id="1694"></path></svg>