<?xml version="1.0" standalone="no"?><!DOCTYPE svg PUBLIC "-//W3C//DTD SVG 1.1//EN" "http://www.w3.org/Graphics/SVG/1.1/DTD/svg11.dtd"><svg t="1641798962012" class="icon" viewBox="0 0 1024 1024" version="1.1" xmlns="http://www.w3.org/2000/svg" p-id="5994" xmlns:xlink="http://www.w3.org/1999/xlink" width="200" height="200"><defs><style type="text/css"></style></defs><path d="M554.666667 981.333333a79.786667 79.786667 0 0 1-23.893334-3.84A85.333333 85.333333 0 0 1 469.333333 896v-210.773333L213.333333 682.666667a85.333333 85.333333 0 0 1-75.093333-42.666667 87.893333 87.893333 0 0 1 4.693333-89.6L397.653333 85.333333A85.333333 85.333333 0 0 1 554.666667 128v210.773333h256A85.333333 85.333333 0 0 1 885.76 384a87.893333 87.893333 0 0 1-4.693333 89.6L626.346667 938.666667A85.333333 85.333333 0 0 1 554.666667 981.333333z m-85.333334-384a85.333333 85.333333 0 0 1 85.333334 85.333334v208.213333l256-460.8V426.666667h-256a85.333333 85.333333 0 0 1-85.333334-85.333334V130.56l-256 469.333333z m341.333334-170.666666z" p-id="5995"></path></svg>