<?xml version="1.0" standalone="no"?><!DOCTYPE svg PUBLIC "-//W3C//DTD SVG 1.1//EN" "http://www.w3.org/Graphics/SVG/1.1/DTD/svg11.dtd"><svg t="1671682149381" class="icon" viewBox="0 0 1024 1024" version="1.1" xmlns="http://www.w3.org/2000/svg" p-id="4213" xmlns:xlink="http://www.w3.org/1999/xlink" width="200" height="200"><path d="M234.3 475.1c0 30.7 24.9 55.6 55.6 55.6s55.6-24.9 55.6-55.6c0-30.7-24.9-55.6-55.6-55.6s-55.6 24.9-55.6 55.6c0 30.8 0 0 0 0z m0 0M454.2 475.1c0 30.7 24.9 55.6 55.6 55.6 30.7 0 55.6-24.9 55.6-55.6 0-30.7-24.9-55.6-55.6-55.6-30.7 0-55.6 24.9-55.6 55.6 0 30.8 0 0 0 0z m0 0M674.1 475.1c0 30.7 24.9 55.6 55.6 55.6s55.6-24.9 55.6-55.6c0-30.7-24.9-55.6-55.6-55.6s-55.6 24.9-55.6 55.6z m0 0" p-id="4214"></path><path d="M924.2 319.2c-22.9-47.3-55.4-89.9-96.9-126.2-84.4-74.2-196.4-114.9-315.2-114.9-118.9 0-230.9 40.8-315.2 114.8-41.5 36.3-74 78.8-96.9 126.2-23.8 49.4-35.8 101.9-35.8 156 0 63.4 17.3 126.5 50 182.5 28.5 48.9 69 92.6 117.5 127.3v131.5c0 11.4 6.1 21.8 15.9 27.5 4.9 2.8 10.4 4.2 15.9 4.2 5.4 0 11-1.5 15.9-4.2l139.2-80.4c30.7 5.8 62.3 8.7 93.7 8.7 118.9 0 230.9-40.8 315.2-114.8 41.5-36.3 74-78.8 96.9-126.2 23.8-49.4 35.8-101.9 35.8-156-0.1-54.1-12.2-106.6-36-156zM512.1 808.8c-31.2 0-62.4-3.3-92.5-9.8-7.7-1.6-15.7-0.4-22.5 3.6l-102 58.9v-93.3c0-10.7-5.4-20.6-14.3-26.6-97.4-63.8-153.3-161-153.3-266.6 0-184 172.5-333.6 384.6-333.6 212 0 384.6 149.6 384.6 333.6 0 184.1-172.6 333.8-384.6 333.8z m0 0" p-id="4215"></path></svg>