<?xml version="1.0" standalone="no"?><!DOCTYPE svg PUBLIC "-//W3C//DTD SVG 1.1//EN" "http://www.w3.org/Graphics/SVG/1.1/DTD/svg11.dtd"><svg t="1642485222219" class="icon" viewBox="0 0 1024 1024" version="1.1" xmlns="http://www.w3.org/2000/svg" p-id="2931" xmlns:xlink="http://www.w3.org/1999/xlink" width="200" height="200"><defs><style type="text/css"></style></defs><path d="M410.3 187.1h209.4c18.5 0 33.4-14.4 33.4-32.1v-53.9c0-17.7-15-32.1-33.4-32.1H410.3c-18.5 0-33.4 14.4-33.4 32.1V155c0 17.7 15 32.1 33.4 32.1z" p-id="2932"></path><path d="M787.7 132.8H680.8v35.8c0 22-18.5 39.8-41.4 39.8H390.7c-22.9 0-41.4-17.8-41.4-39.8v-35.8H242.4c-58.7 0-106.2 45.7-106.2 102v610.6c0 56.3 47.6 102 106.2 102h545.2c58.7 0 106.2-45.7 106.2-102V234.8c0.1-56.3-47.5-102-106.1-102z m-27.5 592.3H291.4c-14.8 0-26.8-11.5-26.8-25.7s12-25.7 26.8-25.7h468.9c14.8 0 26.8 11.5 26.8 25.7s-12.1 25.7-26.9 25.7z m0-168.6H291.4c-14.8 0-26.8-11.5-26.8-25.7s12-25.7 26.8-25.7h468.9c14.8 0 26.8 11.5 26.8 25.7s-12.1 25.7-26.9 25.7z m0-168.6H291.4c-14.8 0-26.8-11.5-26.8-25.7s12-25.7 26.8-25.7h468.9c14.8 0 26.8 11.5 26.8 25.7s-12.1 25.7-26.9 25.7z" p-id="2933"></path></svg>