<?xml version="1.0" standalone="no"?><!DOCTYPE svg PUBLIC "-//W3C//DTD SVG 1.1//EN" "http://www.w3.org/Graphics/SVG/1.1/DTD/svg11.dtd"><svg t="1641518169431" class="icon" viewBox="0 0 1137 1024" version="1.1" xmlns="http://www.w3.org/2000/svg" p-id="2426" xmlns:xlink="http://www.w3.org/1999/xlink" width="222.0703125" height="200"><defs><style type="text/css"></style></defs><path d="M615.3 844.55l-90.8-90.7a30.75 30.75 0 0 1 0-43.65 30.75 30.75 0 0 1 43.65 0l93.35 93.35 43.15-38.05-95.9-95.9a30.75 30.75 0 0 1 0-43.65 30.75 30.75 0 0 1 43.65 0l98.7 98.7 36.5-32L686.3 591.4a30.75 30.75 0 0 1 0-43.65 30.75 30.75 0 0 1 43.65 0L833.8 651.6c6.7-6 11.15-10.2 12.5-11.7 0.65-0.6 32.15-41.2 3.05-70.3l-209.5-209.5a1061 1061 0 0 1-46.25 44C539.05 452 453 440.5 393 377.45a30.5 30.5 0 0 1 0.6-43L499.75 228.3c-25.4-17-52.75-30-75.85-41.15a244.45 244.45 0 0 0-18.2-8.5l-5.45-3c-38.75-19.4-49.1-21.2-60-10.3l-195.75 197c-23 23-21.2 36.35-20 49.65 0 1.2 0 1.85 0.6 3 3 7.9 20 27.9 29.1 38.85 4.25 5.45 9.1 10.9 12.75 15.75 16.35 20.6 27.25 38.75 38.15 57 17 28.45 32.75 55.1 68.5 90.85l246.65 246.7c10.3 10.3 23.65 16.95 36.4 18.75 9.05 1.25 16.95-0.6 21.2-4.2 4.9-4.95 17.9-16.75 37.4-34.15z m287.1-308l84.6-84.5c24.85-24.9 5.45-55.2-15.8-76.4L744 148.35c-18.2-18.15-30.9-23-38.2-24.2-5.45-0.65-13.3-0.65-24.2 10.3l-220 220c32.1 20.6 68.5 23 91.5 3 39.4-34.5 95.75-95.75 96.35-96.35a30.75 30.75 0 0 1 43.65-1.8c12.7 11.5 13.35 30.9 1.8 43.6l-12 12.8L893 526c3.4 3.4 6.5 7 9.35 10.65z m-358.1-352.7l93-93c42.4-42.45 98.75-37.6 150.3 13.95L1014.85 332c55.15 55.15 61.2 118.2 15.75 163.65L923.15 603.1c-0.25 5.95-1 11.95-2.25 18-5.45 26.65-19.35 50.9-30.9 62.4-6.65 6.7-44.85 40-111.5 98.8-64.85 57-145.5 127.9-157 139.4-14.5 15.15-35.75 23.65-59.35 23.65-4.25 0-9.1 0-13.35-0.6a126.75 126.75 0 0 1-72.1-36.4L230 661.1c-41.2-41.2-60.6-73.95-78.15-102.4-10.3-17-20-33.35-33.35-50.35-3.65-4.85-7.9-9.65-12.1-14.5-25.5-30.95-41.25-50.95-42.449-71.498 0-1.251 0-2.5-0.6-3.651-1.8-18.2-6.05-56.4 37.55-100l197-197.001c44.249-44.2 96.35-18.8 130.9-1.2l5.5 2.4c5.4 2.45 11.499 5.5 16.899 8.5 27.8 13.65 61.45 29.65 93.1 52.4z" p-id="2427"></path></svg>