<?xml version="1.0" standalone="no"?><!DOCTYPE svg PUBLIC "-//W3C//DTD SVG 1.1//EN" "http://www.w3.org/Graphics/SVG/1.1/DTD/svg11.dtd"><svg t="1643262171095" class="icon" viewBox="0 0 1024 1024" version="1.1" xmlns="http://www.w3.org/2000/svg" p-id="2116" xmlns:xlink="http://www.w3.org/1999/xlink" width="200" height="200"><defs><style type="text/css"></style></defs><path d="M944 960H80a16 16 0 0 1 0-32h864a16 16 0 0 1 0 32zM669.92 468.8a16 16 0 0 1-13.76-7.84l-48-80a285.28 285.28 0 0 0-35.2-48 16 16 0 1 1 23.68-21.76 344 344 0 0 1 39.04 52.48l17.6 29.6a305.6 305.6 0 0 0-88.8-205.28l-86.88-85.92L432 147.36l119.84 119.68a16 16 0 0 1-22.72 22.72L398.4 158.72a16 16 0 0 1 0-22.72l67.84-67.84a16 16 0 0 1 22.72 0l98.72 98.56a338.72 338.72 0 0 1 98.24 237.6v48a16 16 0 0 1-11.68 16 13.44 13.44 0 0 1-4.32 0.48z" p-id="2117"></path><path d="M240 536.8a16 16 0 0 1-11.36-4.64l-45.12-45.28a16 16 0 0 1 0-22.72l69.76-69.76a16 16 0 0 1 22.72 22.72l-58.56 58.4L240 498.08l248.96-248.8-22.56-22.56-97.28 97.28a16 16 0 0 1-22.72-22.72L455.04 192a16 16 0 0 1 11.36-4.64 16 16 0 0 1 11.36 4.64l45.12 45.28a16 16 0 0 1 0 22.72l-272 272a16 16 0 0 1-10.88 4.8z" p-id="2118"></path><path d="M309.76 376.64a16 16 0 0 1-11.36-4.64 16 16 0 0 1 0-22.72l2.88-2.88a16 16 0 0 1 22.72 22.72l-2.88 2.88a16 16 0 0 1-11.36 4.64zM579.52 197.28a16 16 0 0 1-11.36-4.64l-45.28-45.28a16 16 0 0 1 0-22.56l22.72-22.72a48 48 0 0 1 67.84 68L590.72 192a16 16 0 0 1-11.2 5.28zM556.8 136l22.72 22.72 11.2-11.36a16 16 0 1 0-22.56-22.56zM528 768h-64a16 16 0 0 1-16-16v-64a16 16 0 0 1 16-16h64a48 48 0 0 1 0 96z m-48-32h48a16 16 0 0 0 0-32h-48z" p-id="2119"></path><path d="M544 832h-80a16 16 0 0 1-16-16v-64a16 16 0 0 1 16-16h80a48 48 0 0 1 0 96z m-64-32h64a16 16 0 0 0 0-32h-64z" p-id="2120"></path><path d="M464 832h-16a16 16 0 0 1 0-32v-96a16 16 0 0 1 0-32h16a16 16 0 0 1 16 16v128a16 16 0 0 1-16 16z" p-id="2121"></path><path d="M528 704h-48a16 16 0 0 1-16-16v-32a16 16 0 0 1 32 0v16h16v-16a16 16 0 0 1 32 0v32a16 16 0 0 1-16 16zM528 864a16 16 0 0 1-16-16v-16h-16v16a16 16 0 0 1-32 0v-32a16 16 0 0 1 16-16h48a16 16 0 0 1 16 16v32a16 16 0 0 1-16 16zM642.24 596.16a16 16 0 0 1-3.84 0A129.6 129.6 0 0 0 608 592a16 16 0 0 1-16-16v-16a64 64 0 0 0-57.6-64l-43.04 43.04A16 16 0 0 1 480 544h-73.44l-20.64 20.8a16 16 0 1 1-22.72-22.72l25.44-25.44A16 16 0 0 1 400 512h73.44l43.2-43.36A16 16 0 0 1 528 464a96 96 0 0 1 96 96 172.16 172.16 0 0 1 22.08 3.84 16 16 0 0 1-3.84 32z" p-id="2122"></path><path d="M880 960H448a16 16 0 0 1-16-16 48 48 0 0 0-48-48 16 16 0 0 1-16-16 32 32 0 0 0-32-32 16 16 0 0 1-12.48-5.92L264.64 768a61.28 61.28 0 0 0-31.04 12.32 16 16 0 0 1-16 1.6A16 16 0 0 1 208 768v-64a96 96 0 0 1 89.12-96l20.96-20.96a16 16 0 1 1 22.72 22.72l-25.44 25.44a16 16 0 0 1-11.36 4.8 64 64 0 0 0-64 64v37.44a97.44 97.44 0 0 1 32-5.44 16 16 0 0 1 12.48 6.08L344.16 816a64 64 0 0 1 54.08 48 80 80 0 0 1 64 62.72H864v-56.16l-123.36-123.2A16 16 0 0 1 736 736v-16a128 128 0 0 0-46.88-98.72 16 16 0 1 1 20.16-24.96 158.56 158.56 0 0 1 49.6 70.88A156 156 0 0 1 768 720v9.44l123.36 123.2A16 16 0 0 1 896 864v80a16 16 0 0 1-16 16z" p-id="2123"></path><path d="M848 848a16 16 0 0 1-11.36-4.64l-96-96A16 16 0 0 1 736 736v-16a126.72 126.72 0 0 0-7.2-42.24 16 16 0 0 1 1.44-13.6 16 16 0 0 1 11.52-7.52A71.84 71.84 0 0 1 752 656a112 112 0 0 1 112 112v64a16 16 0 0 1-9.92 14.72 13.44 13.44 0 0 1-6.08 1.28z m-80-118.56l64 64V768a80 80 0 0 0-67.04-79.04A155.84 155.84 0 0 1 768 720zM448 960H144a16 16 0 0 1-16-16v-32a16 16 0 0 1 32 0v16h269.28A48 48 0 0 0 384 896a16 16 0 0 1-16-16 32 32 0 0 0-32-32 16 16 0 0 1-12.48-5.92L264.64 768a61.28 61.28 0 0 0-31.04 12.32A64 64 0 0 0 208 832a16 16 0 0 1-16 16 32 32 0 0 0-24.8 11.84 16 16 0 1 1-24.96-19.84 62.08 62.08 0 0 1 34.88-22.24 96 96 0 0 1 37.28-62.56A94.88 94.88 0 0 1 272 736a16 16 0 0 1 12.48 6.08L344.16 816a64 64 0 0 1 54.08 48A80 80 0 0 1 464 944a16 16 0 0 1-16 16z" p-id="2124"></path></svg>