<?xml version="1.0" standalone="no"?><!DOCTYPE svg PUBLIC "-//W3C//DTD SVG 1.1//EN" "http://www.w3.org/Graphics/SVG/1.1/DTD/svg11.dtd"><svg t="1638859757155" class="icon" viewBox="0 0 1024 1024" version="1.1" xmlns="http://www.w3.org/2000/svg" p-id="1969" xmlns:xlink="http://www.w3.org/1999/xlink" width="200" height="200"><defs><style type="text/css"></style></defs><path d="M345.800806 594.416166c1.448772-9.358143-2.00166-18.808435-9.117535-25.054023-63.802266-55.862178-100.38503-136.261326-100.38503-220.571646 0-161.791447 131.623209-293.419775 293.414656-293.419775 161.791447 0 293.414656 131.628328 293.414656 293.419775 0 84.289842-36.593003 164.68899-100.415746 220.571646-11.508264 10.069731-12.675472 27.562497-2.600622 39.07588 10.07997 11.518503 27.582974 12.649876 39.07588 2.595503 75.832702-66.408007 119.321448-161.991101 119.321448-262.243028 0-192.328277-156.477578-348.790497-348.795617-348.790497-192.323158 0-348.790497 156.46222-348.790497 348.790497 0 87.5355 33.122094 171.492586 91.968844 235.581534C164.207773 658.054613 15.424555 858.76836 15.424555 964.15498c0 15.291452 12.399028 27.69048 27.69048 27.69048 15.286333 0 27.685361-12.399028 27.685361-27.69048 0-85.656705 164.448382-307.211263 258.767-348.606201C338.239549 611.750232 344.362273 603.774309 345.800806 594.416166z" p-id="1970"></path><path d="M873.875516 678.025137 454.218072 678.025137c-71.363523 0-129.411656 64.565047-129.411656 143.92497l0 58.119804c0 79.365043 58.048134 143.930089 129.411656 143.930089l419.662564 0c71.363523 0 129.416776-64.565047 129.416776-143.930089l0-58.119804C1003.297411 742.590183 945.244158 678.025137 873.875516 678.025137zM947.916451 880.064792c0 48.838451-33.214242 88.549129-74.040935 88.549129L454.218072 968.61392c-40.826693 0-74.040935-39.710678-74.040935-88.549129l0-58.119804c0-48.828212 33.214242-88.554248 74.040935-88.554248l419.662564 0c40.826693 0 74.040935 39.726036 74.040935 88.554248L947.92157 880.064792z" p-id="1971"></path></svg>