<?xml version="1.0" standalone="no"?><!DOCTYPE svg PUBLIC "-//W3C//DTD SVG 1.1//EN" "http://www.w3.org/Graphics/SVG/1.1/DTD/svg11.dtd"><svg t="1641456876643" class="icon" viewBox="0 0 1024 1024" version="1.1" xmlns="http://www.w3.org/2000/svg" p-id="2775" xmlns:xlink="http://www.w3.org/1999/xlink" width="200" height="200"><defs><style type="text/css"></style></defs><path d="M334.08 213.333333H725.333333a42.666667 42.666667 0 0 1 42.666667 42.666667v256a42.666667 42.666667 0 0 1-42.666667 42.666667H341.333333v170.666666h341.333334a42.666667 42.666667 0 0 1 0 85.333334H298.666667a42.666667 42.666667 0 0 1-42.666667-42.666667v-256a42.666667 42.666667 0 0 1 42.666667-42.666667h384V298.666667H334.08a128.042667 128.042667 0 1 1 0-85.333334zM213.333333 298.666667a42.666667 42.666667 0 1 0 0-85.333334 42.666667 42.666667 0 0 0 0 85.333334z m567.168 414.165333a42.666667 42.666667 0 0 1 60.330667-60.330667l85.333333 85.333334a42.666667 42.666667 0 0 1 0 60.330666l-85.333333 85.333334a42.666667 42.666667 0 0 1-60.330667-60.330667L835.669333 768l-55.168-55.168z" p-id="2776"></path></svg>