<?xml version="1.0" standalone="no"?><!DOCTYPE svg PUBLIC "-//W3C//DTD SVG 1.1//EN" "http://www.w3.org/Graphics/SVG/1.1/DTD/svg11.dtd"><svg t="1641869981191" class="icon" viewBox="0 0 1024 1024" version="1.1" xmlns="http://www.w3.org/2000/svg" p-id="2028" xmlns:xlink="http://www.w3.org/1999/xlink" width="200" height="200"><defs><style type="text/css"></style></defs><path d="M986.584615 500.184615L827.076923 340.676923c-7.876923-7.876923-21.661538-7.876923-29.538461 0L768 370.215385c-7.876923 7.876923-7.876923 21.661538 0 29.538461l49.230769 49.230769c7.876923 7.876923 1.969231 23.630769-9.846154 23.63077H372.184615l259.938462-257.969231c7.876923-7.876923 23.630769-1.969231 23.630769 9.846154V295.384615c0 11.815385 7.876923 19.692308 19.692308 19.692308h41.353846c11.815385 0 19.692308-7.876923 19.692308-19.692308V66.953846c0-11.815385-7.876923-19.692308-19.692308-19.692308H492.307692c-9.846154 0-19.692308 9.846154-19.692307 21.661539v39.384615c0 11.815385 7.876923 19.692308 19.692307 19.692308h70.892308c11.815385 0 17.723077 13.784615 9.846154 23.630769L254.030769 470.646154H59.076923c-11.815385 0-19.692308 9.846154-19.692308 21.661538v41.353846c0 11.815385 11.815385 21.661538 21.661539 21.661539h196.923077l317.046154 317.046154c7.876923 7.876923 1.969231 23.630769-9.846154 23.630769h-70.892308c-11.815385 0-19.692308 7.876923-19.692308 19.692308v39.384615c0 9.846154 7.876923 19.692308 19.692308 21.661539h224.492308c11.815385 0 19.692308-7.876923 19.692307-19.692308V730.584615c0-11.815385-7.876923-19.692308-19.692307-19.692307h-41.353846c-11.815385 0-19.692308 7.876923-19.692308 19.692307v70.892308c0 11.815385-13.784615 17.723077-23.630769 9.846154L374.153846 555.323077h435.2c11.815385 0 17.723077 15.753846 9.846154 23.630769L768 628.184615c-7.876923 7.876923-7.876923 21.661538 0 29.538462l29.538462 29.538461c7.876923 7.876923 21.661538 7.876923 29.538461 0l159.507692-157.538461c7.876923-9.846154 7.876923-21.661538 0-29.538462z" p-id="2029"></path></svg>