<?xml version="1.0" standalone="no"?><!DOCTYPE svg PUBLIC "-//W3C//DTD SVG 1.1//EN" "http://www.w3.org/Graphics/SVG/1.1/DTD/svg11.dtd"><svg t="1639462566325" class="icon" viewBox="0 0 1024 1024" version="1.1" xmlns="http://www.w3.org/2000/svg" p-id="3162" xmlns:xlink="http://www.w3.org/1999/xlink" width="200" height="200"><defs><style type="text/css"></style></defs><path d="M896 784.96V240C896 185.12 769.056 128 608 128c-161.056 0-288 57.12-288 112V416h352a32 32 0 0 1 32 32v288a32 32 0 0 1-32 32h-32v-32h32v-288H128v288h399.616l-43.648-35.296a16 16 0 0 1 20.096-24.864l97.12 78.464-96.896 81.184a16 16 0 0 1-20.544-24.512L535.008 768H320v16.96l0.064 0.96C323.168 840.512 449.472 896 608 896s284.832-55.488 287.936-110.08l0.064-0.96zM320 244.672h0.32C327.168 298.048 451.52 352 608 352c156.48 0 280.8-53.952 287.68-107.328H896v58.176C844.16 350.88 734.656 384 608 384s-236.16-33.12-288-81.152V244.672zM896 624v62.848c-33.216 30.784-90.112 55.424-160 69.184v-32.736c95.456-19.872 160-60.16 160-99.296z m0-192v62.848c-33.216 30.784-90.112 55.424-160 69.184v-32.736c95.456-19.872 160-60.16 160-99.296zM288.096 768H128a32 32 0 0 1-32-32v-288a32 32 0 0 1 32-32h160.032L288 240C288 160.48 431.264 96 608 96s320 64.48 320 144v547.744C923.488 865.536 781.952 928 608 928s-315.488-62.464-319.904-140.256V768z m-110.304-148.16l31.52-3.072c1.888 10.56 5.76 18.336 11.52 23.296 5.824 4.96 13.632 7.424 23.488 7.424 10.4 0 18.24-2.208 23.552-6.592 5.28-4.416 7.936-9.6 7.936-15.488a14.592 14.592 0 0 0-3.328-9.696c-2.24-2.656-6.112-4.96-11.648-6.944a398.432 398.432 0 0 0-25.92-6.976c-17.376-4.32-29.536-9.6-36.544-15.872a41.728 41.728 0 0 1-14.752-32.256c0-8.16 2.304-15.808 6.944-22.912 4.608-7.104 11.296-12.544 20-16.256 8.704-3.712 19.232-5.568 31.552-5.568 20.16 0 35.264 4.416 45.44 13.216 10.176 8.832 15.52 20.608 16.032 35.328l-32.384 1.44c-1.376-8.256-4.352-14.176-8.896-17.792-4.576-3.584-11.392-5.408-20.512-5.408-9.408 0-16.768 1.92-22.08 5.792a11.68 11.68 0 0 0-5.152 9.952c0 3.808 1.6 7.04 4.8 9.76 4.096 3.424 14.016 6.976 29.76 10.72 15.744 3.712 27.392 7.552 34.944 11.52 7.552 3.968 13.44 9.408 17.728 16.32 4.256 6.88 6.4 15.36 6.4 25.536a47.232 47.232 0 0 1-29.312 43.68c-9.344 3.904-20.992 5.856-34.88 5.856-20.288 0-35.84-4.704-46.72-14.08-10.88-9.344-17.376-23.008-19.488-40.96z m157.504-108.16h59.2c13.312 0 23.488 0.992 30.496 3.04 9.408 2.784 17.472 7.68 24.16 14.752 6.72 7.072 11.84 15.744 15.328 25.984 3.52 10.24 5.248 22.88 5.248 37.888 0 13.216-1.632 24.576-4.928 34.144a70.72 70.72 0 0 1-17.152 28.32c-5.632 5.472-13.216 9.728-22.752 12.8-7.168 2.24-16.704 3.392-28.672 3.392h-60.928v-160.32z m32.384 27.104v106.208h24.16c9.056 0 15.584-0.512 19.584-1.536 5.248-1.312 9.6-3.52 13.088-6.688 3.456-3.136 6.272-8.288 8.48-15.456 2.176-7.2 3.264-16.96 3.264-29.376 0-12.384-1.088-21.92-3.264-28.544a36.704 36.704 0 0 0-9.216-15.52 30.816 30.816 0 0 0-14.976-7.552c-4.512-1.024-13.376-1.536-26.56-1.536h-14.56zM497.184 672v-160.32h118.88v27.104H529.6v35.52h80.48v27.04H529.6v43.648h89.568V672h-121.952z" p-id="3163"></path></svg>