<?xml version="1.0" standalone="no"?><!DOCTYPE svg PUBLIC "-//W3C//DTD SVG 1.1//EN" "http://www.w3.org/Graphics/SVG/1.1/DTD/svg11.dtd"><svg t="1638859678362" class="icon" viewBox="0 0 1024 1024" version="1.1" xmlns="http://www.w3.org/2000/svg" p-id="1777" xmlns:xlink="http://www.w3.org/1999/xlink" width="200" height="200"><defs><style type="text/css"></style></defs><path d="M950.238554 836.217173c-40.186258-103.071494-108.157325-127.170354-162.897044-136.676869-45.675272-7.995091-90.363054-24.527626-110.522186-35.33681 0-47.343261-0.652869-62.574151-0.826831-73.02313 51.570539-61.052494 84.068697-144.510278 84.068697-219.309868 0-169.745009-83.45676-307.356157-249.843278-307.356157-166.268838 0-249.841232 137.612171-249.841232 307.356157 0 74.658374 32.0653 157.468404 83.033112 218.304981 0.091074 26.748201 0.13917 67.886133-0.390903 74.107835-20.277836 10.689457-64.789609 27.279297-110.428042 35.236526-54.738695 9.488095-122.710786 33.608445-162.874531 136.641053-6.811126 17.520025-4.386914 36.536125 6.674003 52.116985 41.2331 58.154491 258.555707 70.358441 433.57586 70.358441 175.042665 0 392.363226-12.20395 433.596326-70.338998C954.621375 872.697015 957.028191 853.699336 950.238554 836.217173zM315.697637 371.869472c0-138.89335 65.060785-251.474428 194.521299-251.474428 129.540332 0 194.541765 112.581078 194.541765 251.474428 0 113.52866-87.1028 251.470335-194.541765 251.470335C402.780994 623.339808 315.697637 485.961974 315.697637 371.869472zM509.967202 902.811894c-338.711282 0-385.163243-45.017286-386.67569-46.822398 31.16172-79.96217 77.945233-94.339622 119.389134-101.519138 48.938596-8.519024 100.143814-26.584472 127.639029-41.11542l27.243481-14.397918c0 0 0.805342-34.779108 1.322112-57.290821 33.523511 23.440875 71.331605 37.556361 111.334691 37.556361 39.753399 0 77.336366-13.994736 110.703311-37.236066 0.397043 22.526039 1.004887 56.520271 1.004887 56.520271l27.28032 14.612813c27.166733 14.554484 78.527494 32.714076 128.063701 41.3692 41.427528 7.196912 88.228437 21.577434 119.682823 101.403504C895.131469 857.815073 848.679507 902.811894 509.967202 902.811894z" p-id="1778"></path></svg>