<?xml version="1.0" standalone="no"?><!DOCTYPE svg PUBLIC "-//W3C//DTD SVG 1.1//EN" "http://www.w3.org/Graphics/SVG/1.1/DTD/svg11.dtd"><svg t="1641456577964" class="icon" viewBox="0 0 1024 1024" version="1.1" xmlns="http://www.w3.org/2000/svg" p-id="1706" xmlns:xlink="http://www.w3.org/1999/xlink" width="200" height="200"><defs><style type="text/css"></style></defs><path d="M282.112 256.928c-13.12 13.216-30.624 20.512-49.28 20.512-18.624 0-36.16-7.296-49.312-20.512L150.624 223.904l98.624-99.04 32.896 33.024c13.184 13.216 20.48 30.816 20.48 49.536a69.6 69.6 0 0 1-20.512 49.472zM249.312 190.912H249.28L216.384 223.904a23.104 23.104 0 0 0 32.864 0.032 23.296 23.296 0 0 0 0.032-32.992z m147.392 208.736L249.568 257.216l32.288-33.632 147.168 142.464-32.32 33.6z m354.752 362.432l-133.344-140.128 32.896-32.992 133.344 140.128-32.896 32.992z m98.72 65.952a115.872 115.872 0 0 1-164.256 0.128l-147.744-154.592 32.896-33.024 147.744 154.624a69.632 69.632 0 0 0 98.496-0.16 70.464 70.464 0 0 0-0.128-99.2l-147.424-154.272 32.864-33.024 147.456 154.304a117.28 117.28 0 0 1 0.128 165.216z m-48.448-400.416a161.408 161.408 0 0 1-115.072 47.872c-43.456 0-84.32-16.992-115.072-47.872s-47.68-71.872-47.68-115.52 16.928-84.704 47.68-115.552l42.496-42.656 32.896 32.992-42.496 42.656a116.064 116.064 0 0 0-34.08 82.56c0 31.168 12.096 60.448 34.08 82.496s51.168 34.208 82.208 34.208c31.072 0 60.256-12.128 82.208-34.208l42.496-42.656 32.896 33.024-42.496 42.656z m42.496-42.656l-49.312-49.504-16.448 16.48a92.064 92.064 0 0 1-65.728 27.36h-0.032a92.128 92.128 0 0 1-65.728-27.36c-17.536-17.6-27.264-41.088-27.264-66.016s9.664-48.416 27.264-66.048l16.448-16.512-49.344-49.504 32.896-33.024 82.208 82.528-49.312 49.472a46.656 46.656 0 0 0-13.632 33.056c0 12.448 4.864 24.192 13.632 32.992s20.448 13.696 32.896 13.696c12.416 0 24.096-4.864 32.864-13.696l49.344-49.504 82.208 82.528-32.896 33.024zM233.6 766.848v-46.688h46.528v46.688H233.6z m304.576-227.392l-92.256-91.584 32.704-33.184 92.224 91.552-32.672 33.216z m-233.952 255.488l173.632-239.84 37.632 27.456-177.184 244.192a115.2 115.2 0 0 1-82.208 34.208c-31.04 0-60.224-12.16-82.208-34.176-21.952-22.048-34.08-51.328-34.08-82.528s12.096-60.48 34.08-82.528l2.752-2.368 240.544-175.424 27.36 37.728-239.008 174.304a69.568 69.568 0 0 0-19.232 48.256c0 18.72 7.264 36.288 20.448 49.504 25.952 26.08 70.976 26.528 97.408 1.184z" p-id="1707"></path></svg>