<?xml version="1.0" standalone="no"?><!DOCTYPE svg PUBLIC "-//W3C//DTD SVG 1.1//EN" "http://www.w3.org/Graphics/SVG/1.1/DTD/svg11.dtd"><svg t="1641775714621" class="icon" viewBox="0 0 1024 1024" version="1.1" xmlns="http://www.w3.org/2000/svg" p-id="2796" xmlns:xlink="http://www.w3.org/1999/xlink" width="200" height="200"><defs><style type="text/css"></style></defs><path d="M514.85227 753.729143v72.550045c-0.585081 161.116682-0.585081 166.821222-3.437351 174.281004-4.570945 11.994161-14.846431 20.002457-29.144348 22.854727-41.138508 6.838134-169.710059-40.553427-196.55065-72.550045a40.480292 40.480292 0 0 1-9.726972-20.55097 32.25259 32.25259 0 0 1 2.303757-14.846431c2.85227-8.008296 8.008296-14.297917 122.830443-150.256115 0 0 0.585081 0 34.300374-40.004914 11.445647-14.297917 31.996618-18.868862 50.86548-11.994161 18.868862 7.423215 29.144348 23.439808 28.559267 40.553427zM429.722984 610.347729c-1.133594 20.002457-12.579242 34.848887-29.692861 40.004914l-68.564181 22.269646c-153.693467 49.146804-158.849493 50.280399-166.821222 50.280398-12.579242-0.585081-23.988321-8.008296-30.863023-20.55097-4.570945-9.141891-8.008296-24.573402-9.726971-42.857184-6.289621-55.984939 1.133594-139.980631 17.6987-166.272708 8.008296-12.579242 19.417376-18.868862 31.996618-18.283781 8.55681 0 15.431512 3.437351 181.119138 70.831369 0 0-0.585081 0.585081 48.01321 19.417376 17.150187 6.838134 28.010753 24.573402 26.840592 45.124372z m471.940966 169.673492c-5.70454 41.138508-90.833826 149.122521-129.705146 164.554032-13.127755 5.156026-26.292078 3.985864-35.982481-3.985864-6.838134-5.156026-13.712836-15.431512-105.131744-163.968952l-26.840591-43.990778c-10.275485-16.016593-8.55681-36.567563 4.570946-52.547588 12.579242-15.431512 30.863023-20.55097 47.428129-14.84643 0 0 0.585081 0.585081 67.979099 22.854727 153.693467 50.280399 158.849493 51.999074 165.139114 57.1551 10.275485 8.008296 14.846431 20.002457 12.579241 34.848888z m-383.95941-361.104684c2.85227 59.42229-22.269646 66.845505-30.863023 69.697775-8.008296 2.303756-33.130212 9.726972-65.12683-40.553427-210.263486-331.960336-215.968026-341.687307-215.968026-341.687307-2.85227-11.994161 0.585081-25.158483 10.860566-35.433969 31.411536-32.581699 202.25519-80.558341 246.83105-69.149261 14.297917 3.437351 24.573402 12.579242 28.010753 25.706997 2.303756 14.297917 22.854727 322.269931 26.292077 391.382625zM895.95941 480.642583c1.133594 14.297917-3.985864 26.292078-14.846431 33.715293-6.838134 4.570945-13.712836 6.838134-187.99384 49.146805-28.010753 6.289621-43.442265 10.275485-51.999075 13.127755l0.585081-1.133594c-17.150187 4.570945-36.567563-3.437351-47.428129-20.550971s-10.275485-35.982482 0-49.695318c0 0 0.585081-0.585081 42.857184-58.288695 93.686096-127.98647 98.293609-134.276091 105.131743-138.847036 10.860566-7.423215 23.988321-7.423215 37.152644-1.133595 37.152644 17.6987 112.006445 129.120064 116.540823 171.977249v1.718675z" fill="" p-id="2797"></path></svg>